<svg width="40" height="45" viewBox="0 0 40 45" fill="none" xmlns="http://www.w3.org/2000/svg">
<g filter="url(#filter0_d)">
<path d="M21.5062 36.6667C26.6335 36.6667 31.3358 34.3357 34.4518 30.4964C36.2923 28.2288 34.2852 24.9156 31.4408 25.4573C26.0796 26.4783 21.1366 22.38 21.1366 16.9422C21.1366 13.7896 22.8332 10.9336 25.5268 9.40079C28.0493 7.96524 27.4148 4.14116 24.5488 3.61179C23.5452 3.42671 22.5268 3.33351 21.5062 3.33334C12.3031 3.33334 4.83954 10.7927 4.83954 20C4.83954 29.2031 12.2989 36.6667 21.5062 36.6667ZM21.5062 6.45834C22.3516 6.45834 23.1787 6.53653 23.9812 6.68478C20.4161 8.71362 18.0116 12.5469 18.0116 16.9422C18.0116 24.3542 24.7591 29.9109 32.0254 28.5271C29.5426 31.5862 25.753 33.5417 21.5062 33.5417C14.0274 33.5417 7.96454 27.4789 7.96454 20C7.96454 12.5212 14.0274 6.45834 21.5062 6.45834Z" fill="white"/>
</g>
<defs>
<filter id="filter0_d" x="-4" y="0" width="48" height="48" filterUnits="userSpaceOnUse" color-interpolation-filters="sRGB">
<feFlood flood-opacity="0" result="BackgroundImageFix"/>
<feColorMatrix in="SourceAlpha" type="matrix" values="0 0 0 0 0 0 0 0 0 0 0 0 0 0 0 0 0 0 127 0" result="hardAlpha"/>
<feOffset dy="4"/>
<feGaussianBlur stdDeviation="2"/>
<feComposite in2="hardAlpha" operator="out"/>
<feColorMatrix type="matrix" values="0 0 0 0 0 0 0 0 0 0 0 0 0 0 0 0 0 0 0.25 0"/>
<feBlend mode="normal" in2="BackgroundImageFix" result="effect1_dropShadow"/>
<feBlend mode="normal" in="SourceGraphic" in2="effect1_dropShadow" result="shape"/>
</filter>
</defs>
</svg>
