<svg width="40" height="40" viewBox="0 0 40 40" fill="none" xmlns="http://www.w3.org/2000/svg">
<path d="M35.5015 17.7812L31.609 15.145L32.5007 10.5235C32.67 9.6643 32.3966 8.77906 31.7782 8.15418C31.1533 7.53581 30.2681 7.26243 29.4219 7.43166L24.8069 8.32342L22.1772 4.42444C21.1943 2.9729 18.799 2.9729 17.8161 4.42444L15.1864 8.32342L10.5779 7.43166C9.71222 7.26894 8.83348 7.53581 8.21511 8.16069C7.59674 8.78557 7.32336 9.6643 7.4926 10.5235L8.38435 15.145L4.49188 17.7812C3.76286 18.2759 3.33325 19.0895 3.33325 19.9683C3.33325 20.847 3.76936 21.6607 4.49188 22.1488L8.38435 24.785L7.4926 29.4065C7.32336 30.2657 7.59674 31.151 8.21511 31.7694C8.83348 32.3877 9.70571 32.6611 10.5779 32.4919L15.1864 31.6001L17.8161 35.4991C18.3043 36.2281 19.1244 36.6642 19.9967 36.6642C20.8689 36.6642 21.689 36.2281 22.1772 35.5056L24.8069 31.6066L29.4219 32.4984C30.2941 32.6741 31.1664 32.3942 31.7847 31.7759C32.4031 31.1575 32.67 30.2723 32.5072 29.413L31.6155 24.7916L35.508 22.1553C36.2305 21.6672 36.6666 20.847 36.6666 19.9748C36.6601 19.0895 36.2305 18.2759 35.5015 17.7812ZM28.1526 23.353L29.2982 29.2894L23.3749 28.1438L19.9967 33.1493L16.6184 28.1373L10.7016 29.2829L11.8472 23.3465L6.84819 19.9618L11.8472 16.577L10.7016 10.6407L16.6249 11.7863L19.9967 6.78726L23.3749 11.7928L29.2982 10.6472L28.1526 16.577L33.1517 19.9618L28.1526 23.353ZM19.9967 13.2313C16.2669 13.2313 13.2272 16.2711 13.2272 20.0008C13.2272 23.7306 16.2669 26.7703 19.9967 26.7703C23.7264 26.7703 26.7662 23.7306 26.7662 20.0008C26.7662 16.2711 23.7264 13.2313 19.9967 13.2313ZM19.9967 23.6459C17.9853 23.6459 16.3515 22.0121 16.3515 20.0008C16.3515 17.9895 17.9853 16.3557 19.9967 16.3557C22.008 16.3557 23.6418 17.9895 23.6418 20.0008C23.6418 22.0121 22.008 23.6459 19.9967 23.6459Z" fill="white"/>
</svg>
